<?xml version="1.0" standalone="no"?>
<!DOCTYPE svg PUBLIC "-//W3C//DTD SVG 20010904//EN"
 "http://www.w3.org/TR/2001/REC-SVG-20010904/DTD/svg10.dtd">
<svg version="1.0" xmlns="http://www.w3.org/2000/svg"
 width="260.000000pt" height="260.000000pt" viewBox="0 0 260.000000 260.000000"
 preserveAspectRatio="xMidYMid meet">
<metadata>
Created by potrace 1.14, written by Peter Selinger 2001-2017
</metadata>
<g transform="translate(0.000000,260.000000) scale(0.100000,-0.100000)"
fill="#000000" stroke="none">
<path d="M0 1300 l0 -1300 1300 0 1300 0 0 1300 0 1300 -1300 0 -1300 0 0
-1300z m493 186 c18 -7 45 -28 60 -45 l27 -33 31 32 c63 63 151 77 229 38 80
-41 85 -58 88 -325 l4 -233 -51 0 -51 0 0 204 c0 218 -6 255 -46 277 -34 18
-97 14 -129 -7 -53 -35 -59 -62 -63 -276 l-4 -198 -43 0 -43 0 -3 214 c-4 199
-6 217 -25 243 -40 54 -135 46 -182 -15 -27 -35 -27 -35 -30 -239 l-3 -203
-50 0 -49 0 0 285 0 285 45 0 45 0 0 -37 0 -37 28 27 c56 53 147 72 215 43z
m1525 -7 c24 -12 48 -32 54 -45 14 -30 19 -30 49 2 72 78 211 85 276 13 36
-40 43 -93 43 -316 l0 -213 -50 0 -50 0 0 209 c0 115 -4 221 -10 235 -25 68
-154 63 -201 -8 -10 -16 -15 -73 -19 -226 l-5 -205 -47 -3 -48 -3 0 193 c0
201 -7 253 -39 282 -24 22 -88 23 -129 2 -60 -31 -67 -59 -70 -278 l-4 -198
-49 0 -49 0 0 285 0 285 45 0 c45 0 45 0 45 -36 l0 -36 33 28 c69 58 148 70
225 33z"/>
</g>
</svg>
